<svg xmlns="http://www.w3.org/2000/svg" width="780" height="453" viewBox="0 0 780 453" font-family="ui-monospace, SFMono-Regular, Menlo, Consolas, monospace" font-size="14">
  <rect width="780" height="453" rx="10" fill="#0d1117"/>
  <rect width="780" height="30" rx="10" fill="#161b22"/>
  <rect y="20" width="780" height="12" fill="#161b22"/>
  <circle cx="18" cy="15" r="5" fill="#ff5f56"/><circle cx="36" cy="15" r="5" fill="#ffbd2e"/><circle cx="54" cy="15" r="5" fill="#27c93f"/>
  <text x="390" y="19" fill="#6e7681" text-anchor="middle" font-size="12">vigia</text>
  <text x="22" y="44" fill="#7ee787">$ npx @luizporto/vigia https://your-site.com</text><text x="22" y="90" fill="#e6edf3" font-weight="700">  vigia  ›  https://your-site.com</text><text x="22" y="136" fill="#8b949e">  0 critical · 3 high · 3 medium · 2 low    (2 passed)</text><circle cx="30" cy="178" r="5" fill="#f0883e"/><text x="46" y="182" fill="#c9d1d9">No text compression on the HTML document</text><circle cx="30" cy="201" r="5" fill="#f0883e"/><text x="46" y="205" fill="#c9d1d9">Missing Content-Security-Policy</text><circle cx="30" cy="224" r="5" fill="#f0883e"/><text x="46" y="228" fill="#c9d1d9">2 heavy blur() glows, GPU risk on iOS Retina</text><text x="429.6" y="228" fill="#6e7681">[heuristic]</text><circle cx="30" cy="247" r="5" fill="#d29922"/><text x="46" y="251" fill="#c9d1d9">No clickjacking protection</text><circle cx="30" cy="270" r="5" fill="#d29922"/><text x="46" y="274" fill="#c9d1d9">HTML has no explicit Cache-Control</text><circle cx="30" cy="293" r="5" fill="#58a6ff"/><text x="46" y="297" fill="#c9d1d9">Server advertises its version headers</text><text x="22" y="343" fill="#e6edf3" font-weight="700">  Hypotheses &amp; runbooks</text><text x="215.20000000000002" y="343" fill="#6e7681"> (only a real device confirms these)</text><circle cx="30" cy="362" r="5" fill="#8b949e"/><text x="46" y="366" fill="#c9d1d9">Loads in Chrome but blank in Safari on iPhone? Private Relay runbook</text><text x="631.2" y="366" fill="#6e7681">[needs device]</text><text x="22" y="412" fill="#6e7681">  11 verdicts (proven) · 1 hypothesis (needs a device)</text>
</svg>